<svg width="20" height="22" viewBox="0 0 20 22" fill="none" xmlns="http://www.w3.org/2000/svg">
<path d="M19.502 13.8775L17.4483 11.8238V9.10346C17.4459 7.22356 16.7465 5.41133 15.4853 4.0172C14.2242 2.62307 12.491 1.74607 10.6207 1.55578V0H9.10346V1.55578C7.23321 1.74607 5.49995 2.62307 4.23882 4.0172C2.9777 5.41133 2.2783 7.22356 2.27587 9.10346V11.8238L0.2222 13.8775C0.0799492 14.0197 2.28468e-05 14.2126 0 14.4138V16.6897C0 16.8909 0.079926 17.0838 0.222195 17.2261C0.364464 17.3684 0.557423 17.4483 0.758622 17.4483H6.06897V18.0376C6.05253 19 6.39178 19.9346 7.02172 20.6623C7.65165 21.3901 8.52798 21.8598 9.48277 21.9814C10.0101 22.0338 10.5426 21.9751 11.0459 21.8093C11.5493 21.6435 12.0123 21.3742 12.4053 21.0187C12.7983 20.6632 13.1125 20.2293 13.3278 19.7451C13.5431 19.2608 13.6546 18.7369 13.6552 18.2069V17.4483H18.9655C19.1667 17.4483 19.3597 17.3684 19.502 17.2261C19.6442 17.0838 19.7242 16.8909 19.7242 16.6897V14.4138C19.7241 14.2126 19.6442 14.0197 19.502 13.8775ZM12.1379 18.2069C12.1379 18.8105 11.8982 19.3894 11.4714 19.8162C11.0446 20.243 10.4657 20.4828 9.86208 20.4828C9.25849 20.4828 8.67961 20.243 8.2528 19.8162C7.826 19.3894 7.58622 18.8105 7.58622 18.2069V17.4483H12.1379V18.2069ZM18.2069 15.9311H1.51724V14.728L3.57083 12.6743C3.71311 12.5321 3.79307 12.3391 3.79311 12.1379V9.10346C3.79311 7.49387 4.43252 5.9502 5.57067 4.81205C6.70882 3.67389 8.25249 3.03449 9.86208 3.03449C11.4717 3.03449 13.0153 3.67389 14.1535 4.81205C15.2916 5.9502 15.9311 7.49387 15.9311 9.10346V12.1379C15.9311 12.3391 16.0111 12.5321 16.1533 12.6743L18.2069 14.728V15.9311Z" fill="white"/>
</svg>
