<svg width="68" height="14" viewBox="0 0 68 14" fill="none" xmlns="http://www.w3.org/2000/svg">
<path opacity="0.36" fill-rule="evenodd" clip-rule="evenodd" d="M46.5894 1.25H61.4106C62.6587 1.25 63.1113 1.37996 63.5676 1.62399C64.0239 1.86802 64.382 2.22612 64.626 2.68242C64.87 3.13871 65 3.59131 65 4.83944V9.16056C65 10.4087 64.87 10.8613 64.626 11.3176C64.382 11.7739 64.0239 12.132 63.5676 12.376C63.1113 12.62 62.6587 12.75 61.4106 12.75H46.5894C45.3413 12.75 44.8887 12.62 44.4324 12.376C43.9761 12.132 43.618 11.7739 43.374 11.3176C43.13 10.8613 43 10.4087 43 9.16056V4.83944C43 3.59131 43.13 3.13871 43.374 2.68242C43.618 2.22612 43.9761 1.86802 44.4324 1.62399C44.8887 1.37996 45.3413 1.25 46.5894 1.25ZM46.5894 2.25C45.6025 2.25 45.2579 2.31654 44.904 2.5058C44.622 2.65663 44.4066 2.87199 44.2558 3.15401C44.0665 3.5079 44 3.85246 44 4.83944V9.16056C44 10.1475 44.0665 10.4921 44.2558 10.846C44.4066 11.128 44.622 11.3434 44.904 11.4942C45.2579 11.6835 45.6025 11.75 46.5894 11.75H61.4106C62.3975 11.75 62.7421 11.6835 63.096 11.4942C63.378 11.3434 63.5934 11.128 63.7442 10.846C63.9335 10.4921 64 10.1475 64 9.16056V4.83944C64 3.85246 63.9335 3.5079 63.7442 3.15401C63.5934 2.87199 63.378 2.65663 63.096 2.5058C62.7421 2.31654 62.3975 2.25 61.4106 2.25H46.5894ZM67.5 6.94C67.5 8.17657 66 8.94 66 8.94V4.94C66 4.94 67.5 5.70343 67.5 6.94Z" fill="white"/>
<rect x="45" y="3.16663" width="18" height="7.66667" rx="1.6" fill="white"/>
<path fill-rule="evenodd" clip-rule="evenodd" d="M30.3004 3.76633C32.5348 3.76643 34.6838 4.62498 36.3031 6.16454C36.4251 6.2834 36.62 6.2819 36.7401 6.16118L37.9058 4.98476C37.9666 4.92353 38.0005 4.84059 38 4.7543C37.9995 4.668 37.9646 4.58547 37.9031 4.52495C33.6527 0.451644 26.9474 0.451644 22.697 4.52495C22.6355 4.58542 22.6005 4.66793 22.6 4.75423C22.5994 4.84052 22.6333 4.92349 22.694 4.98476L23.86 6.16118C23.98 6.28208 24.1751 6.28358 24.297 6.16454C25.9165 4.62488 28.0658 3.76633 30.3004 3.76633ZM30.3004 7.59372C31.5281 7.59364 32.7119 8.04996 33.6219 8.87399C33.745 8.99094 33.9389 8.98841 34.0589 8.86828L35.2232 7.69186C35.2845 7.63016 35.3185 7.54645 35.3177 7.45946C35.3168 7.37248 35.281 7.28947 35.2185 7.22903C32.4473 4.65128 28.1558 4.65128 25.3847 7.22903C25.3221 7.28947 25.2863 7.37252 25.2855 7.45953C25.2847 7.54654 25.3188 7.63025 25.3803 7.69186L26.5443 8.86828C26.6642 8.98841 26.8581 8.99094 26.9812 8.87399C27.8906 8.0505 29.0735 7.59423 30.3004 7.59372ZM32.5379 10.4013C32.6002 10.3402 32.6345 10.2561 32.6327 10.1689C32.6309 10.0816 32.5932 9.99902 32.5285 9.9405C31.2423 8.8526 29.3585 8.8526 28.0723 9.9405C28.0075 9.99897 27.9697 10.0816 27.9679 10.1688C27.9661 10.256 28.0003 10.3402 28.0625 10.4013L30.0769 12.4338C30.1359 12.4936 30.2164 12.5272 30.3004 12.5272C30.3844 12.5272 30.4649 12.4936 30.5239 12.4338L32.5379 10.4013Z" fill="white"/>
<path fill-rule="evenodd" clip-rule="evenodd" d="M14.623 2.61592C14.6 2.73183 14.6 2.87123 14.6 3.15002V10.85C14.6 11.1288 14.6 11.2682 14.623 11.3841C14.7177 11.8602 15.0899 12.2323 15.5659 12.327C15.6818 12.35 15.8212 12.35 16.1 12.35C16.3788 12.35 16.5182 12.35 16.6341 12.327C17.1101 12.2323 17.4822 11.8602 17.5769 11.3841C17.6 11.2682 17.6 11.1288 17.6 10.85V3.15002C17.6 2.87123 17.6 2.73183 17.5769 2.61592C17.4822 2.13989 17.1101 1.76777 16.6341 1.67308C16.5182 1.65002 16.3788 1.65002 16.1 1.65002C15.8212 1.65002 15.6818 1.65002 15.5659 1.67308C15.0899 1.76777 14.7177 2.13989 14.623 2.61592ZM9.89999 5.55003C9.89999 5.27123 9.89999 5.13184 9.92305 5.01592C10.0177 4.53989 10.3899 4.16777 10.8659 4.07308C10.9818 4.05003 11.1212 4.05003 11.4 4.05003C11.6788 4.05003 11.8182 4.05003 11.9341 4.07308C12.4101 4.16777 12.7822 4.53989 12.8769 5.01592C12.9 5.13184 12.9 5.27123 12.9 5.55003V10.85C12.9 11.1288 12.9 11.2682 12.8769 11.3841C12.7822 11.8602 12.4101 12.2323 11.9341 12.327C11.8182 12.35 11.6788 12.35 11.4 12.35C11.1212 12.35 10.9818 12.35 10.8659 12.327C10.3899 12.2323 10.0177 11.8602 9.92305 11.3841C9.89999 11.2682 9.89999 11.1288 9.89999 10.85V5.55003ZM5.32305 7.31592C5.29999 7.43184 5.29999 7.57124 5.29999 7.85003V10.85C5.29999 11.1288 5.29999 11.2682 5.32305 11.3841C5.41773 11.8602 5.78985 12.2323 6.26588 12.327C6.3818 12.35 6.52119 12.35 6.79999 12.35C7.07878 12.35 7.21818 12.35 7.3341 12.327C7.81012 12.2323 8.18224 11.8602 8.27693 11.3841C8.29999 11.2682 8.29999 11.1288 8.29999 10.85V7.85003C8.29999 7.57124 8.29999 7.43184 8.27693 7.31592C8.18224 6.83989 7.81012 6.46777 7.3341 6.37309C7.21818 6.35003 7.07878 6.35003 6.79999 6.35003C6.52119 6.35003 6.3818 6.35003 6.26588 6.37309C5.78985 6.46777 5.41773 6.83989 5.32305 7.31592ZM0.523058 9.31592C0.5 9.43184 0.5 9.57124 0.5 9.85003V10.85C0.5 11.1288 0.5 11.2682 0.523058 11.3841C0.617746 11.8602 0.989863 12.2323 1.46589 12.327C1.58181 12.35 1.72121 12.35 2 12.35C2.27879 12.35 2.41819 12.35 2.53411 12.327C3.01014 12.2323 3.38225 11.8602 3.47694 11.3841C3.5 11.2682 3.5 11.1288 3.5 10.85V9.85003C3.5 9.57124 3.5 9.43184 3.47694 9.31592C3.38225 8.83989 3.01014 8.46777 2.53411 8.37309C2.41819 8.35003 2.27879 8.35003 2 8.35003C1.72121 8.35003 1.58181 8.35003 1.46589 8.37309C0.989863 8.46777 0.617746 8.83989 0.523058 9.31592Z" fill="white"/>
</svg>
