<svg width="16" height="16" viewBox="0 0 16 16" fill="none" xmlns="http://www.w3.org/2000/svg">
<path fill-rule="evenodd" clip-rule="evenodd" d="M8.896 15.7658C8.5832 16.0781 8.0768 16.0781 7.7648 15.7658C7.452 15.4535 7.452 14.948 7.7648 14.6365L12.9168 9.49319C13.1688 9.24161 12.9904 8.81193 12.6344 8.81193H0.800001C0.358401 8.81193 1.90735e-06 8.44695 1.90735e-06 8.00609V8.0029C1.90735e-06 7.56204 0.358401 7.21463 0.800001 7.21463H12.6344C12.9904 7.21463 13.1688 6.78415 12.9168 6.53258L7.74 1.3637C7.4272 1.05143 7.4272 0.545882 7.74 0.23361C8.052 -0.07787 8.5584 -0.07787 8.8712 0.23361L15.5312 6.88319C16.156 7.50694 16.156 8.51803 15.5312 9.14178C15.3688 9.3039 8.7672 15.8944 8.896 15.7658Z" fill="black"/>
</svg>
