<svg width="22" height="23" viewBox="0 0 22 23" fill="none" xmlns="http://www.w3.org/2000/svg">
<path fill-rule="evenodd" clip-rule="evenodd" d="M16.286 15.9223L21.461 21.281C21.7065 21.5352 21.7065 21.9557 21.461 22.21C21.3382 22.342 21.173 22.4055 21.0124 22.4055C20.8519 22.4055 20.6866 22.3371 20.5639 22.21L15.3889 16.8513C13.7929 18.2888 11.7106 19.159 9.43474 19.159C4.4297 19.159 0.354839 14.9396 0.354839 9.75695C0.354839 4.5743 4.42498 0.354845 9.43474 0.354845C14.4398 0.354845 18.5146 4.56941 18.5146 9.75695C18.5146 12.1136 17.6742 14.2698 16.286 15.9223ZM9.43001 1.67496C5.12851 1.67496 1.62498 5.29792 1.62498 9.75695C1.62498 14.216 5.12851 17.8438 9.43001 17.8438C13.7362 17.8438 17.235 14.2111 17.235 9.75695C17.235 5.30281 13.7362 1.67496 9.43001 1.67496Z" fill="white"/>
<path d="M21.461 21.281L21.2058 21.5275L21.2058 21.5275L21.461 21.281ZM16.286 15.9223L16.0143 15.6941L15.8087 15.9389L16.0307 16.1688L16.286 15.9223ZM21.461 22.21L21.2057 21.9634L21.2012 21.9683L21.461 22.21ZM20.5639 22.21L20.8191 21.9635L20.5639 22.21ZM15.3889 16.8513L15.6441 16.6048L15.406 16.3583L15.1514 16.5876L15.3889 16.8513ZM21.7163 21.0345L16.5412 15.6758L16.0307 16.1688L21.2058 21.5275L21.7163 21.0345ZM21.7163 22.4565C22.0946 22.0647 22.0946 21.4262 21.7163 21.0345L21.2058 21.5275C21.3185 21.6442 21.3185 21.8467 21.2058 21.9635L21.7163 22.4565ZM21.0124 22.7604C21.2656 22.7604 21.527 22.66 21.7209 22.4516L21.2012 21.9683C21.1495 22.0239 21.0804 22.0507 21.0124 22.0507V22.7604ZM20.3086 22.4565C20.4966 22.651 20.7532 22.7604 21.0124 22.7604V22.0507C20.9506 22.0507 20.8767 22.0231 20.8191 21.9635L20.3086 22.4565ZM15.1336 17.0978L20.3086 22.4565L20.8191 21.9635L15.6441 16.6048L15.1336 17.0978ZM9.43474 19.5139C11.8033 19.5139 13.969 18.6077 15.6263 17.115L15.1514 16.5876C13.6168 17.9698 11.6179 18.8042 9.43474 18.8042V19.5139ZM3.92786e-07 9.75695C3.92786e-07 15.1238 4.22217 19.5139 9.43474 19.5139V18.8042C4.63723 18.8042 0.709678 14.7554 0.709678 9.75695H3.92786e-07ZM9.43474 6.19394e-06C4.21733 6.19394e-06 3.92786e-07 4.39022 3.92786e-07 9.75695H0.709678C0.709678 4.75839 4.63263 0.709684 9.43474 0.709684V6.19394e-06ZM18.8695 9.75695C18.8695 4.38508 14.6472 6.19394e-06 9.43474 6.19394e-06V0.709684C14.2324 0.709684 18.1598 4.75374 18.1598 9.75695H18.8695ZM16.5577 16.1506C17.9983 14.4356 18.8695 12.1991 18.8695 9.75695H18.1598C18.1598 12.0281 17.3501 14.1039 16.0143 15.6941L16.5577 16.1506ZM1.97981 9.75695C1.97981 5.48227 5.3359 2.02979 9.43001 2.02979V1.32012C4.92111 1.32012 1.27014 5.11357 1.27014 9.75695H1.97981ZM9.43001 17.489C5.33618 17.489 1.97981 14.0319 1.97981 9.75695H1.27014C1.27014 14.4 4.92084 18.1987 9.43001 18.1987V17.489ZM16.8802 9.75695C16.8802 14.0273 13.5283 17.489 9.43001 17.489V18.1987C13.9442 18.1987 17.5899 14.3949 17.5899 9.75695H16.8802ZM9.43001 2.02979C13.5286 2.02979 16.8802 5.48687 16.8802 9.75695H17.5899C17.5899 5.11874 13.9439 1.32012 9.43001 1.32012V2.02979Z" fill="white"/>
</svg>
