<svg width="18" height="18" viewBox="0 0 18 18" fill="none" xmlns="http://www.w3.org/2000/svg">
<path fill-rule="evenodd" clip-rule="evenodd" d="M0 5.97653V0H5.97653V5.97653H0ZM1.40624 4.57029H4.57029V1.40624H1.40624V4.57029Z" fill="black" fill-opacity="0.6"/>
<rect x="2.28517" y="2.28511" width="1.40624" height="1.40624" fill="black" fill-opacity="0.6"/>
<path fill-rule="evenodd" clip-rule="evenodd" d="M12.0234 5.97653V0H17.9999V5.97653H12.0234ZM13.4296 4.57029H16.5937V1.40624H13.4296V4.57029Z" fill="black" fill-opacity="0.6"/>
<rect x="14.3085" y="2.28511" width="1.40624" height="1.40624" fill="black" fill-opacity="0.6"/>
<path fill-rule="evenodd" clip-rule="evenodd" d="M0 18V12.0234H5.97653V18H0ZM1.40624 16.5937H4.57029V13.4297H1.40624V16.5937Z" fill="black" fill-opacity="0.6"/>
<rect x="2.28517" y="14.3085" width="1.40624" height="1.40624" fill="black" fill-opacity="0.6"/>
<rect x="1.40623" y="6.92575" width="1.40624" height="1.40624" fill="black" fill-opacity="0.6"/>
<path d="M4.2187 9.73822V8.33198H2.81246V9.73822H4.18354V11.1445H5.58979V9.73822H4.2187Z" fill="black" fill-opacity="0.6"/>
<rect x="9.84372" y="2.70706" width="1.40624" height="1.40624" fill="black" fill-opacity="0.6"/>
<rect x="7.0312" y="1.40623" width="1.40624" height="2.70702" fill="black" fill-opacity="0.6"/>
<rect x="8.43743" width="1.40624" height="1.40624" fill="black" fill-opacity="0.6"/>
<path d="M8.43745 4.11329V5.51953H7.0312V6.92578H9.84369V4.11329H8.43745Z" fill="black" fill-opacity="0.6"/>
<path d="M9.84369 12.4804V11.1093H8.43745V8.33198H7.0312V11.1445H8.43745V12.5155H9.84369V13.8866H12.6562V12.4804H9.84369Z" fill="black" fill-opacity="0.6"/>
<rect x="9.84372" y="6.92575" width="1.40624" height="2.81249" fill="black" fill-opacity="0.6"/>
<path fill-rule="evenodd" clip-rule="evenodd" d="M16.5937 6.92575V8.29683H17.9999V11.1093H14.0624V9.73823H12.6562V8.33199H14.0273V6.92575H16.5937ZM14.0624 9.70308H16.5937V8.33199H14.0624V9.70308Z" fill="black" fill-opacity="0.6"/>
<rect x="16.5936" y="12.4804" width="1.40624" height="2.81249" fill="black" fill-opacity="0.6"/>
<rect x="11.25" y="9.7382" width="1.40624" height="1.40624" fill="black" fill-opacity="0.6"/>
<rect x="12.6562" y="13.8867" width="1.40624" height="1.40624" fill="black" fill-opacity="0.6"/>
<rect x="14.0624" y="12.4804" width="1.40624" height="1.40624" fill="black" fill-opacity="0.6"/>
<path d="M14.0624 15.2929V18H15.4687V16.6992H16.5936V15.2929H14.0624Z" fill="black" fill-opacity="0.6"/>
<rect x="7.0312" y="12.5156" width="1.40624" height="2.67186" fill="black" fill-opacity="0.6"/>
<path d="M11.2499 16.5937V15.1874H8.43743V17.9999H9.84368V16.5937H11.2148V17.9999H12.621V16.5937H11.2499Z" fill="black" fill-opacity="0.6"/>
<rect x="4.21875" y="6.92575" width="2.81249" height="1.40624" fill="black" fill-opacity="0.6"/>
<rect y="8.33198" width="1.40624" height="2.81249" fill="black" fill-opacity="0.6"/>
</svg>
