<svg width="20" height="13" viewBox="0 0 20 13" fill="none" xmlns="http://www.w3.org/2000/svg">
<path d="M9.76239 4.641C7.44701 4.641 5.32911 5.81847 4.09737 7.79032C3.79912 8.26808 3.94437 8.89721 4.42213 9.19586C4.89949 9.4937 5.52902 9.34886 5.82768 8.87069C6.68406 7.49941 8.15529 6.68098 9.76239 6.68098C11.3695 6.68098 12.8403 7.49941 13.6971 8.87069C13.8905 9.18076 14.223 9.3509 14.5629 9.3509C14.7477 9.3509 14.9341 9.30071 15.1022 9.19586C15.58 8.89762 15.7252 8.26849 15.427 7.79032C14.1957 5.81847 12.0782 4.641 9.76239 4.641Z" fill="black" fill-opacity="0.6"/>
<path d="M19.3699 5.33413C17.2846 1.99387 13.693 0 9.76241 0C5.83178 0 2.24061 1.99387 0.154936 5.33413C-0.143309 5.8119 0.0019373 6.44102 0.4797 6.73927C0.957871 7.03711 1.587 6.89227 1.88524 6.4145C3.59556 3.67522 6.54047 2.03998 9.76241 2.03998C12.9844 2.03998 15.9293 3.67522 17.6396 6.4145C17.833 6.72417 18.1655 6.89431 18.5053 6.89431C18.6898 6.89431 18.8766 6.84453 19.0447 6.73927C19.5229 6.44062 19.6681 5.8119 19.3699 5.33413Z" fill="black" fill-opacity="0.6"/>
<circle cx="9.76239" cy="11.3214" r="1.67849" fill="black" fill-opacity="0.6"/>
</svg>
